<svg data-v-0dd9719b="" version="1.0" xmlns="http://www.w3.org/2000/svg" xmlns:xlink="http://www.w3.org/1999/xlink" width="100%" height="100%" viewBox="0 0 340.000000 250.000000" preserveAspectRatio="xMidYMid meet" color-interpolation-filters="sRGB" style="margin: auto;"> <rect data-v-0dd9719b="" x="0" y="0" width="100%" height="100%" fill="#fff" fill-opacity="1" class="background"></rect> <rect data-v-0dd9719b="" x="0" y="0" width="100%" height="100%" fill="url(#watermark)" fill-opacity="1" class="watermarklayer"></rect> <g data-v-0dd9719b="" fill="#333" class="basesvg" transform="translate(110.06000137329102,99.552001953125)"><g data-gra="path-name" fill-rule="" class="tp-name" transform="translate(0,0)"><g transform="scale(1)"><g><path d="M-9.54-21.84C-9.3-21.72-9.12-21.72-9-21.72-8.64-21.72-8.46-21.84-8.46-22.08-8.46-22.2-8.52-22.32-8.58-22.44-8.64-22.56-8.76-22.74-8.94-22.86L5.28-23.04C3.78-18.84 1.92-14.4-0.42-11.04-0.48-10.98-0.48-10.86-0.48-10.74-0.48-10.62-0.48-10.5-0.42-10.38-0.12-9.84 0.66-9.42 1.2-9.42 1.44-9.42 1.68-9.48 1.8-9.66 4.38-13.44 6.42-18.42 7.92-23.1L8.28-23.1 7.5-12.12C7.5-11.4 7.44-10.62 7.44-9.84 7.44-7.32 7.68-4.68 8.64-2.88 8.82-2.64 8.88-2.46 9.06-2.28 10.02-1.02 11.1-0.54 12.24-0.54 16.74-0.54 22.2-7.98 23.16-9.48 23.22-9.6 23.28-9.72 23.28-9.9 23.28-10.08 23.22-10.26 23.1-10.38 22.8-10.92 22.08-11.28 21.54-11.28 21.3-11.28 21.12-11.22 21-11.04 19.44-8.58 14.58-2.46 11.28-2.46 11.04-2.46 10.92-2.64 10.74-2.88 10.56-3.3 10.38-3.9 10.26-4.32 9.96-5.46 9.84-7.08 9.84-8.94 9.84-13.02 10.38-18.42 10.74-23.16L45.48-23.58C45.84-23.58 45.96-23.76 45.96-23.94 45.96-24.06 45.9-24.24 45.84-24.36 45.6-24.72 45.18-25.08 44.64-25.08L44.58-25.08 10.8-24.66 11.34-31.98C11.46-33.36 11.58-34.62 11.58-35.58 11.58-36 11.58-36.36 11.52-36.66 11.58-36.72 11.64-36.9 11.64-37.14 11.64-37.26 11.64-37.38 11.58-37.5 11.4-37.74 11.22-37.92 10.8-38.16 10.62-38.22 10.44-38.28 10.26-38.28 9.54-38.28 9-37.26 8.52-35.04 7.92-32.28 6.96-28.5 5.7-24.6-0.12-24.48-6-24.42-11.82-24.3-12.3-24.3-12.54-24.18-12.54-23.94-12.54-23.88-12.48-23.76-12.42-23.58L-12.36-23.46C-12.06-22.86-10.8-22.38-9.54-21.84ZM26.1-9.48C26.22-9.06 26.4-8.52 26.64-8.04 27.66-6.24 29.52-4.98 31.62-4.98 34.92-4.98 37.44-8.34 38.4-9.66 38.46-9.72 38.46-9.78 38.46-9.9 38.46-10.02 38.4-10.2 38.34-10.32 38.22-10.56 38.04-10.8 37.74-10.98 37.38-11.16 37.14-11.28 36.9-11.28 35.88-11.28 35.46-9.54 33.18-7.86 32.64-7.44 31.56-6.84 30.6-6.84 29.88-6.84 29.22-7.14 28.8-7.92 28.44-8.7 28.32-9.12 28.32-9.42 28.32-9.84 28.56-9.96 28.56-10.14 28.56-10.2 28.56-10.26 28.5-10.38 28.44-10.5 28.38-10.62 28.26-10.74 27.72-11.4 27.42-11.52 27-11.52 26.58-11.52 25.98-11.4 25.02-11.4 24.66-11.4 24.24-11.4 23.7-11.46 23.22-11.52 22.98-11.64 22.86-11.82 22.8-11.94 22.74-12.06 22.74-12.24 22.74-12.36 22.8-12.54 22.8-12.66L22.8-12.78C22.8-12.96 22.74-13.08 22.68-13.2 22.44-13.68 21.66-14.1 21.12-14.1 20.82-14.1 20.58-13.98 20.52-13.68 20.46-13.44 20.46-13.14 20.46-12.96 20.46-12.66 20.46-12.36 20.58-12.12L20.82-11.76C21.84-9.84 24.3-9.54 26.1-9.48ZM38.82-3.96C42.24-3.96 50.16-10.92 50.16-10.92 50.28-10.86 50.34-10.74 50.46-10.56 50.76-10.02 51-9.18 51.48-8.34 52.38-6.72 53.88-5.04 56.88-4.98L56.94-4.98C59.64-4.98 61.68-7.92 62.64-9.42 62.82-9.6 62.88-9.84 62.88-10.02 62.88-10.14 62.82-10.32 62.76-10.44 62.46-10.92 61.74-11.28 61.2-11.28 60.96-11.28 60.72-11.22 60.6-11.04 59.76-9.66 57.9-6.84 55.98-6.84L55.92-6.84C54.66-6.9 54.06-7.74 53.52-8.7L52.68-10.2C51.9-11.64 50.94-12.66 49.62-12.66 48.96-12.66 48.3-12.42 47.46-11.82 46.5-13.62 44.58-14.76 42.54-14.76 39.96-14.76 37.56-12.9 36.6-11.58 35.88-10.5 35.52-9.18 35.52-7.98 35.52-7.14 35.7-6.3 36.06-5.64 36.54-4.74 37.38-4.08 38.64-3.96ZM43.56-12.9C44.46-12.9 45-12.48 45.36-11.88 45.54-11.52 45.66-11.04 45.78-10.62 43.32-8.7 39.84-6.06 38.04-5.88 37.86-6.36 37.8-6.78 37.8-7.26 37.8-10.14 40.86-12.9 43.56-12.9ZM62.04-13.98C62.28-13.86 62.46-13.86 62.64-13.86 63.54-13.86 63.42-15.18 63.48-16.26L63.48-16.38C63.48-16.5 63.42-16.62 63.36-16.74 63.06-17.22 62.34-17.64 61.8-17.64 61.44-17.64 61.2-17.52 61.14-17.16 61.14-16.56 61.02-15.96 61.02-15.48 61.02-15.18 61.08-14.88 61.2-14.64 61.32-14.4 61.62-14.16 62.04-13.98ZM72.9-9.66C72.96-9.78 73.02-9.84 73.02-9.96 73.02-10.08 72.96-10.2 72.9-10.32 72.78-10.56 72.54-10.8 72.24-10.98 71.88-11.16 71.64-11.28 71.4-11.28 70.44-11.28 70.02-9.54 67.74-7.86 66.72-7.14 65.88-6.84 65.22-6.84 64.32-6.84 63.72-7.32 63.3-7.98 63.06-8.46 62.94-8.94 62.94-9.42 62.94-9.72 63-10.02 63.06-10.26 63.12-10.32 63.12-10.38 63.12-10.5 63.12-10.62 63.06-10.74 63-10.86 62.76-11.34 61.98-11.76 61.44-11.76 61.14-11.76 60.96-11.64 60.84-11.4 60.72-11.04 60.6-10.62 60.6-10.2 60.6-9.48 60.84-8.64 61.26-7.92 62.16-6.3 63.96-4.98 66.12-4.98 68.22-4.98 70.62-6.24 72.9-9.66ZM73.56-3.96C75.24-3.96 79.38-11.58 81.9-11.58 82.02-11.58 82.2-11.52 82.26-11.52 82.68-10.8 82.8-9.9 82.8-9.06 82.8-7.8 82.5-6.66 82.44-6.36 82.44-6.18 82.5-6 82.56-5.82 82.86-5.28 83.58-4.86 84.18-4.86 84.36-4.86 84.6-4.92 84.72-5.1 85.5-6.18 89.88-10.14 93-10.14 94.38-10.14 96.24-5.1 101.4-4.98L101.58-4.98C104.22-4.98 106.26-7.92 107.16-9.42 107.28-9.6 107.34-9.78 107.34-9.96 107.34-10.14 107.28-10.32 107.22-10.44 106.92-10.92 106.2-11.28 105.66-11.28 105.42-11.28 105.18-11.22 105.06-11.04 104.22-9.66 102.42-6.84 100.5-6.84L100.44-6.84C96.72-6.96 95.82-12 91.92-12 89.4-12 86.7-10.26 85.14-8.94 84.96-10.92 84.06-12.66 82.08-13.26 81.78-13.32 81.48-13.38 81.18-13.38 77.04-13.38 73.02-5.82 72.6-5.82 72.48-6.12 72.48-6.48 72.48-6.84 72.48-8.22 73.02-9.84 73.26-10.2 73.32-10.32 73.38-10.38 73.38-10.5 73.38-10.62 73.32-10.74 73.26-10.86 72.96-11.4 72.18-11.82 71.64-11.82 71.4-11.82 71.22-11.76 71.04-11.58 70.74-10.98 70.14-9.42 70.14-7.8 70.14-7.02 70.32-6.24 70.68-5.58 71.1-4.74 71.94-4.08 73.5-3.96Z" transform="translate(12.539999961853027, 38.279998779296875)"></path></g> <!----> <!----> <!----> <!----> <!----> <!----> <!----></g></g> 
</g><defs v-gra="od"></defs></svg>